<?xml version="1.0" encoding="utf-8" standalone="no"?>
<!DOCTYPE svg PUBLIC "-//W3C//DTD SVG 1.1//EN"
  "http://www.w3.org/Graphics/SVG/1.1/DTD/svg11.dtd">
<svg xmlns:xlink="http://www.w3.org/1999/xlink" width="1382.4pt" height="697.68pt" viewBox="0 0 1382.4 697.68" xmlns="http://www.w3.org/2000/svg" version="1.1">
 <metadata>
  <rdf:RDF xmlns:dc="http://purl.org/dc/elements/1.1/" xmlns:cc="http://creativecommons.org/ns#" xmlns:rdf="http://www.w3.org/1999/02/22-rdf-syntax-ns#">
   <cc:Work>
    <dc:type rdf:resource="http://purl.org/dc/dcmitype/StillImage"/>
    <dc:date>2024-04-20T21:36:22.660668</dc:date>
    <dc:format>image/svg+xml</dc:format>
    <dc:creator>
     <cc:Agent>
      <dc:title>Matplotlib v3.5.1, https://matplotlib.org/</dc:title>
     </cc:Agent>
    </dc:creator>
   </cc:Work>
  </rdf:RDF>
 </metadata>
 <defs>
  <style type="text/css">*{stroke-linejoin: round; stroke-linecap: butt}</style>
 </defs>
 <g id="figure_1">
  <g id="patch_1">
   <path d="M 0 697.68 
L 1382.4 697.68 
L 1382.4 0 
L 0 0 
z
" style="fill: #ffffff"/>
  </g>
  <g id="axes_1">
   <g id="patch_2">
    <path d="M 172.8 620.9352 
L 1244.16 620.9352 
L 1244.16 83.7216 
L 172.8 83.7216 
z
" style="fill: #ffffff"/>
   </g>
   <g id="matplotlib.axis_1">
    <g id="xtick_1">
     <g id="line2d_1">
      <path d="M 215.333855 620.9352 
L 215.333855 83.7216 
" clip-path="url(#p359ce67615)" style="fill: none; stroke: #b0b0b0; stroke-width: 0.8; stroke-linecap: square"/>
     </g>
     <g id="line2d_2">
      <defs>
       <path id="m07ba55b7a1" d="M 0 0 
L 0 3.5 
" style="stroke: #000000; stroke-width: 0.8"/>
      </defs>
      <g>
       <use xlink:href="#m07ba55b7a1" x="215.333855" y="620.9352" style="stroke: #000000; stroke-width: 0.8"/>
      </g>
     </g>
     <g id="text_1">
      <!-- 0 -->
      <g transform="translate(208.971355 643.132075)scale(0.2 -0.2)">
       <defs>
        <path id="DejaVuSans-30" d="M 2034 4250 
Q 1547 4250 1301 3770 
Q 1056 3291 1056 2328 
Q 1056 1369 1301 889 
Q 1547 409 2034 409 
Q 2525 409 2770 889 
Q 3016 1369 3016 2328 
Q 3016 3291 2770 3770 
Q 2525 4250 2034 4250 
z
M 2034 4750 
Q 2819 4750 3233 4129 
Q 3647 3509 3647 2328 
Q 3647 1150 3233 529 
Q 2819 -91 2034 -91 
Q 1250 -91 836 529 
Q 422 1150 422 2328 
Q 422 3509 836 4129 
Q 1250 4750 2034 4750 
z
" transform="scale(0.015625)"/>
       </defs>
       <use xlink:href="#DejaVuSans-30"/>
      </g>
     </g>
    </g>
    <g id="xtick_2">
     <g id="line2d_3">
      <path d="M 338.620391 620.9352 
L 338.620391 83.7216 
" clip-path="url(#p359ce67615)" style="fill: none; stroke: #b0b0b0; stroke-width: 0.8; stroke-linecap: square"/>
     </g>
     <g id="line2d_4">
      <g>
       <use xlink:href="#m07ba55b7a1" x="338.620391" y="620.9352" style="stroke: #000000; stroke-width: 0.8"/>
      </g>
     </g>
     <g id="text_2">
      <!-- 2000 -->
      <g transform="translate(313.170391 643.132075)scale(0.2 -0.2)">
       <defs>
        <path id="DejaVuSans-32" d="M 1228 531 
L 3431 531 
L 3431 0 
L 469 0 
L 469 531 
Q 828 903 1448 1529 
Q 2069 2156 2228 2338 
Q 2531 2678 2651 2914 
Q 2772 3150 2772 3378 
Q 2772 3750 2511 3984 
Q 2250 4219 1831 4219 
Q 1534 4219 1204 4116 
Q 875 4013 500 3803 
L 500 4441 
Q 881 4594 1212 4672 
Q 1544 4750 1819 4750 
Q 2544 4750 2975 4387 
Q 3406 4025 3406 3419 
Q 3406 3131 3298 2873 
Q 3191 2616 2906 2266 
Q 2828 2175 2409 1742 
Q 1991 1309 1228 531 
z
" transform="scale(0.015625)"/>
       </defs>
       <use xlink:href="#DejaVuSans-32"/>
       <use xlink:href="#DejaVuSans-30" x="63.623047"/>
       <use xlink:href="#DejaVuSans-30" x="127.246094"/>
       <use xlink:href="#DejaVuSans-30" x="190.869141"/>
      </g>
     </g>
    </g>
    <g id="xtick_3">
     <g id="line2d_5">
      <path d="M 461.906928 620.9352 
L 461.906928 83.7216 
" clip-path="url(#p359ce67615)" style="fill: none; stroke: #b0b0b0; stroke-width: 0.8; stroke-linecap: square"/>
     </g>
     <g id="line2d_6">
      <g>
       <use xlink:href="#m07ba55b7a1" x="461.906928" y="620.9352" style="stroke: #000000; stroke-width: 0.8"/>
      </g>
     </g>
     <g id="text_3">
      <!-- 4000 -->
      <g transform="translate(436.456928 643.132075)scale(0.2 -0.2)">
       <defs>
        <path id="DejaVuSans-34" d="M 2419 4116 
L 825 1625 
L 2419 1625 
L 2419 4116 
z
M 2253 4666 
L 3047 4666 
L 3047 1625 
L 3713 1625 
L 3713 1100 
L 3047 1100 
L 3047 0 
L 2419 0 
L 2419 1100 
L 313 1100 
L 313 1709 
L 2253 4666 
z
" transform="scale(0.015625)"/>
       </defs>
       <use xlink:href="#DejaVuSans-34"/>
       <use xlink:href="#DejaVuSans-30" x="63.623047"/>
       <use xlink:href="#DejaVuSans-30" x="127.246094"/>
       <use xlink:href="#DejaVuSans-30" x="190.869141"/>
      </g>
     </g>
    </g>
    <g id="xtick_4">
     <g id="line2d_7">
      <path d="M 585.193464 620.9352 
L 585.193464 83.7216 
" clip-path="url(#p359ce67615)" style="fill: none; stroke: #b0b0b0; stroke-width: 0.8; stroke-linecap: square"/>
     </g>
     <g id="line2d_8">
      <g>
       <use xlink:href="#m07ba55b7a1" x="585.193464" y="620.9352" style="stroke: #000000; stroke-width: 0.8"/>
      </g>
     </g>
     <g id="text_4">
      <!-- 6000 -->
      <g transform="translate(559.743464 643.132075)scale(0.2 -0.2)">
       <defs>
        <path id="DejaVuSans-36" d="M 2113 2584 
Q 1688 2584 1439 2293 
Q 1191 2003 1191 1497 
Q 1191 994 1439 701 
Q 1688 409 2113 409 
Q 2538 409 2786 701 
Q 3034 994 3034 1497 
Q 3034 2003 2786 2293 
Q 2538 2584 2113 2584 
z
M 3366 4563 
L 3366 3988 
Q 3128 4100 2886 4159 
Q 2644 4219 2406 4219 
Q 1781 4219 1451 3797 
Q 1122 3375 1075 2522 
Q 1259 2794 1537 2939 
Q 1816 3084 2150 3084 
Q 2853 3084 3261 2657 
Q 3669 2231 3669 1497 
Q 3669 778 3244 343 
Q 2819 -91 2113 -91 
Q 1303 -91 875 529 
Q 447 1150 447 2328 
Q 447 3434 972 4092 
Q 1497 4750 2381 4750 
Q 2619 4750 2861 4703 
Q 3103 4656 3366 4563 
z
" transform="scale(0.015625)"/>
       </defs>
       <use xlink:href="#DejaVuSans-36"/>
       <use xlink:href="#DejaVuSans-30" x="63.623047"/>
       <use xlink:href="#DejaVuSans-30" x="127.246094"/>
       <use xlink:href="#DejaVuSans-30" x="190.869141"/>
      </g>
     </g>
    </g>
    <g id="xtick_5">
     <g id="line2d_9">
      <path d="M 708.48 620.9352 
L 708.48 83.7216 
" clip-path="url(#p359ce67615)" style="fill: none; stroke: #b0b0b0; stroke-width: 0.8; stroke-linecap: square"/>
     </g>
     <g id="line2d_10">
      <g>
       <use xlink:href="#m07ba55b7a1" x="708.48" y="620.9352" style="stroke: #000000; stroke-width: 0.8"/>
      </g>
     </g>
     <g id="text_5">
      <!-- 8000 -->
      <g transform="translate(683.03 643.132075)scale(0.2 -0.2)">
       <defs>
        <path id="DejaVuSans-38" d="M 2034 2216 
Q 1584 2216 1326 1975 
Q 1069 1734 1069 1313 
Q 1069 891 1326 650 
Q 1584 409 2034 409 
Q 2484 409 2743 651 
Q 3003 894 3003 1313 
Q 3003 1734 2745 1975 
Q 2488 2216 2034 2216 
z
M 1403 2484 
Q 997 2584 770 2862 
Q 544 3141 544 3541 
Q 544 4100 942 4425 
Q 1341 4750 2034 4750 
Q 2731 4750 3128 4425 
Q 3525 4100 3525 3541 
Q 3525 3141 3298 2862 
Q 3072 2584 2669 2484 
Q 3125 2378 3379 2068 
Q 3634 1759 3634 1313 
Q 3634 634 3220 271 
Q 2806 -91 2034 -91 
Q 1263 -91 848 271 
Q 434 634 434 1313 
Q 434 1759 690 2068 
Q 947 2378 1403 2484 
z
M 1172 3481 
Q 1172 3119 1398 2916 
Q 1625 2713 2034 2713 
Q 2441 2713 2670 2916 
Q 2900 3119 2900 3481 
Q 2900 3844 2670 4047 
Q 2441 4250 2034 4250 
Q 1625 4250 1398 4047 
Q 1172 3844 1172 3481 
z
" transform="scale(0.015625)"/>
       </defs>
       <use xlink:href="#DejaVuSans-38"/>
       <use xlink:href="#DejaVuSans-30" x="63.623047"/>
       <use xlink:href="#DejaVuSans-30" x="127.246094"/>
       <use xlink:href="#DejaVuSans-30" x="190.869141"/>
      </g>
     </g>
    </g>
    <g id="xtick_6">
     <g id="line2d_11">
      <path d="M 831.766536 620.9352 
L 831.766536 83.7216 
" clip-path="url(#p359ce67615)" style="fill: none; stroke: #b0b0b0; stroke-width: 0.8; stroke-linecap: square"/>
     </g>
     <g id="line2d_12">
      <g>
       <use xlink:href="#m07ba55b7a1" x="831.766536" y="620.9352" style="stroke: #000000; stroke-width: 0.8"/>
      </g>
     </g>
     <g id="text_6">
      <!-- 10000 -->
      <g transform="translate(799.954036 643.132075)scale(0.2 -0.2)">
       <defs>
        <path id="DejaVuSans-31" d="M 794 531 
L 1825 531 
L 1825 4091 
L 703 3866 
L 703 4441 
L 1819 4666 
L 2450 4666 
L 2450 531 
L 3481 531 
L 3481 0 
L 794 0 
L 794 531 
z
" transform="scale(0.015625)"/>
       </defs>
       <use xlink:href="#DejaVuSans-31"/>
       <use xlink:href="#DejaVuSans-30" x="63.623047"/>
       <use xlink:href="#DejaVuSans-30" x="127.246094"/>
       <use xlink:href="#DejaVuSans-30" x="190.869141"/>
       <use xlink:href="#DejaVuSans-30" x="254.492188"/>
      </g>
     </g>
    </g>
    <g id="xtick_7">
     <g id="line2d_13">
      <path d="M 955.053072 620.9352 
L 955.053072 83.7216 
" clip-path="url(#p359ce67615)" style="fill: none; stroke: #b0b0b0; stroke-width: 0.8; stroke-linecap: square"/>
     </g>
     <g id="line2d_14">
      <g>
       <use xlink:href="#m07ba55b7a1" x="955.053072" y="620.9352" style="stroke: #000000; stroke-width: 0.8"/>
      </g>
     </g>
     <g id="text_7">
      <!-- 12000 -->
      <g transform="translate(923.240572 643.132075)scale(0.2 -0.2)">
       <use xlink:href="#DejaVuSans-31"/>
       <use xlink:href="#DejaVuSans-32" x="63.623047"/>
       <use xlink:href="#DejaVuSans-30" x="127.246094"/>
       <use xlink:href="#DejaVuSans-30" x="190.869141"/>
       <use xlink:href="#DejaVuSans-30" x="254.492188"/>
      </g>
     </g>
    </g>
    <g id="xtick_8">
     <g id="line2d_15">
      <path d="M 1078.339609 620.9352 
L 1078.339609 83.7216 
" clip-path="url(#p359ce67615)" style="fill: none; stroke: #b0b0b0; stroke-width: 0.8; stroke-linecap: square"/>
     </g>
     <g id="line2d_16">
      <g>
       <use xlink:href="#m07ba55b7a1" x="1078.339609" y="620.9352" style="stroke: #000000; stroke-width: 0.8"/>
      </g>
     </g>
     <g id="text_8">
      <!-- 14000 -->
      <g transform="translate(1046.527109 643.132075)scale(0.2 -0.2)">
       <use xlink:href="#DejaVuSans-31"/>
       <use xlink:href="#DejaVuSans-34" x="63.623047"/>
       <use xlink:href="#DejaVuSans-30" x="127.246094"/>
       <use xlink:href="#DejaVuSans-30" x="190.869141"/>
       <use xlink:href="#DejaVuSans-30" x="254.492188"/>
      </g>
     </g>
    </g>
    <g id="xtick_9">
     <g id="line2d_17">
      <path d="M 1201.626145 620.9352 
L 1201.626145 83.7216 
" clip-path="url(#p359ce67615)" style="fill: none; stroke: #b0b0b0; stroke-width: 0.8; stroke-linecap: square"/>
     </g>
     <g id="line2d_18">
      <g>
       <use xlink:href="#m07ba55b7a1" x="1201.626145" y="620.9352" style="stroke: #000000; stroke-width: 0.8"/>
      </g>
     </g>
     <g id="text_9">
      <!-- 16000 -->
      <g transform="translate(1169.813645 643.132075)scale(0.2 -0.2)">
       <use xlink:href="#DejaVuSans-31"/>
       <use xlink:href="#DejaVuSans-36" x="63.623047"/>
       <use xlink:href="#DejaVuSans-30" x="127.246094"/>
       <use xlink:href="#DejaVuSans-30" x="190.869141"/>
       <use xlink:href="#DejaVuSans-30" x="254.492188"/>
      </g>
     </g>
    </g>
    <g id="text_10">
     <!-- Amount of particles in system -->
     <g transform="translate(558.640937 666.488325)scale(0.2 -0.2)">
      <defs>
       <path id="DejaVuSans-41" d="M 2188 4044 
L 1331 1722 
L 3047 1722 
L 2188 4044 
z
M 1831 4666 
L 2547 4666 
L 4325 0 
L 3669 0 
L 3244 1197 
L 1141 1197 
L 716 0 
L 50 0 
L 1831 4666 
z
" transform="scale(0.015625)"/>
       <path id="DejaVuSans-6d" d="M 3328 2828 
Q 3544 3216 3844 3400 
Q 4144 3584 4550 3584 
Q 5097 3584 5394 3201 
Q 5691 2819 5691 2113 
L 5691 0 
L 5113 0 
L 5113 2094 
Q 5113 2597 4934 2840 
Q 4756 3084 4391 3084 
Q 3944 3084 3684 2787 
Q 3425 2491 3425 1978 
L 3425 0 
L 2847 0 
L 2847 2094 
Q 2847 2600 2669 2842 
Q 2491 3084 2119 3084 
Q 1678 3084 1418 2786 
Q 1159 2488 1159 1978 
L 1159 0 
L 581 0 
L 581 3500 
L 1159 3500 
L 1159 2956 
Q 1356 3278 1631 3431 
Q 1906 3584 2284 3584 
Q 2666 3584 2933 3390 
Q 3200 3197 3328 2828 
z
" transform="scale(0.015625)"/>
       <path id="DejaVuSans-6f" d="M 1959 3097 
Q 1497 3097 1228 2736 
Q 959 2375 959 1747 
Q 959 1119 1226 758 
Q 1494 397 1959 397 
Q 2419 397 2687 759 
Q 2956 1122 2956 1747 
Q 2956 2369 2687 2733 
Q 2419 3097 1959 3097 
z
M 1959 3584 
Q 2709 3584 3137 3096 
Q 3566 2609 3566 1747 
Q 3566 888 3137 398 
Q 2709 -91 1959 -91 
Q 1206 -91 779 398 
Q 353 888 353 1747 
Q 353 2609 779 3096 
Q 1206 3584 1959 3584 
z
" transform="scale(0.015625)"/>
       <path id="DejaVuSans-75" d="M 544 1381 
L 544 3500 
L 1119 3500 
L 1119 1403 
Q 1119 906 1312 657 
Q 1506 409 1894 409 
Q 2359 409 2629 706 
Q 2900 1003 2900 1516 
L 2900 3500 
L 3475 3500 
L 3475 0 
L 2900 0 
L 2900 538 
Q 2691 219 2414 64 
Q 2138 -91 1772 -91 
Q 1169 -91 856 284 
Q 544 659 544 1381 
z
M 1991 3584 
L 1991 3584 
z
" transform="scale(0.015625)"/>
       <path id="DejaVuSans-6e" d="M 3513 2113 
L 3513 0 
L 2938 0 
L 2938 2094 
Q 2938 2591 2744 2837 
Q 2550 3084 2163 3084 
Q 1697 3084 1428 2787 
Q 1159 2491 1159 1978 
L 1159 0 
L 581 0 
L 581 3500 
L 1159 3500 
L 1159 2956 
Q 1366 3272 1645 3428 
Q 1925 3584 2291 3584 
Q 2894 3584 3203 3211 
Q 3513 2838 3513 2113 
z
" transform="scale(0.015625)"/>
       <path id="DejaVuSans-74" d="M 1172 4494 
L 1172 3500 
L 2356 3500 
L 2356 3053 
L 1172 3053 
L 1172 1153 
Q 1172 725 1289 603 
Q 1406 481 1766 481 
L 2356 481 
L 2356 0 
L 1766 0 
Q 1100 0 847 248 
Q 594 497 594 1153 
L 594 3053 
L 172 3053 
L 172 3500 
L 594 3500 
L 594 4494 
L 1172 4494 
z
" transform="scale(0.015625)"/>
       <path id="DejaVuSans-20" transform="scale(0.015625)"/>
       <path id="DejaVuSans-66" d="M 2375 4863 
L 2375 4384 
L 1825 4384 
Q 1516 4384 1395 4259 
Q 1275 4134 1275 3809 
L 1275 3500 
L 2222 3500 
L 2222 3053 
L 1275 3053 
L 1275 0 
L 697 0 
L 697 3053 
L 147 3053 
L 147 3500 
L 697 3500 
L 697 3744 
Q 697 4328 969 4595 
Q 1241 4863 1831 4863 
L 2375 4863 
z
" transform="scale(0.015625)"/>
       <path id="DejaVuSans-70" d="M 1159 525 
L 1159 -1331 
L 581 -1331 
L 581 3500 
L 1159 3500 
L 1159 2969 
Q 1341 3281 1617 3432 
Q 1894 3584 2278 3584 
Q 2916 3584 3314 3078 
Q 3713 2572 3713 1747 
Q 3713 922 3314 415 
Q 2916 -91 2278 -91 
Q 1894 -91 1617 61 
Q 1341 213 1159 525 
z
M 3116 1747 
Q 3116 2381 2855 2742 
Q 2594 3103 2138 3103 
Q 1681 3103 1420 2742 
Q 1159 2381 1159 1747 
Q 1159 1113 1420 752 
Q 1681 391 2138 391 
Q 2594 391 2855 752 
Q 3116 1113 3116 1747 
z
" transform="scale(0.015625)"/>
       <path id="DejaVuSans-61" d="M 2194 1759 
Q 1497 1759 1228 1600 
Q 959 1441 959 1056 
Q 959 750 1161 570 
Q 1363 391 1709 391 
Q 2188 391 2477 730 
Q 2766 1069 2766 1631 
L 2766 1759 
L 2194 1759 
z
M 3341 1997 
L 3341 0 
L 2766 0 
L 2766 531 
Q 2569 213 2275 61 
Q 1981 -91 1556 -91 
Q 1019 -91 701 211 
Q 384 513 384 1019 
Q 384 1609 779 1909 
Q 1175 2209 1959 2209 
L 2766 2209 
L 2766 2266 
Q 2766 2663 2505 2880 
Q 2244 3097 1772 3097 
Q 1472 3097 1187 3025 
Q 903 2953 641 2809 
L 641 3341 
Q 956 3463 1253 3523 
Q 1550 3584 1831 3584 
Q 2591 3584 2966 3190 
Q 3341 2797 3341 1997 
z
" transform="scale(0.015625)"/>
       <path id="DejaVuSans-72" d="M 2631 2963 
Q 2534 3019 2420 3045 
Q 2306 3072 2169 3072 
Q 1681 3072 1420 2755 
Q 1159 2438 1159 1844 
L 1159 0 
L 581 0 
L 581 3500 
L 1159 3500 
L 1159 2956 
Q 1341 3275 1631 3429 
Q 1922 3584 2338 3584 
Q 2397 3584 2469 3576 
Q 2541 3569 2628 3553 
L 2631 2963 
z
" transform="scale(0.015625)"/>
       <path id="DejaVuSans-69" d="M 603 3500 
L 1178 3500 
L 1178 0 
L 603 0 
L 603 3500 
z
M 603 4863 
L 1178 4863 
L 1178 4134 
L 603 4134 
L 603 4863 
z
" transform="scale(0.015625)"/>
       <path id="DejaVuSans-63" d="M 3122 3366 
L 3122 2828 
Q 2878 2963 2633 3030 
Q 2388 3097 2138 3097 
Q 1578 3097 1268 2742 
Q 959 2388 959 1747 
Q 959 1106 1268 751 
Q 1578 397 2138 397 
Q 2388 397 2633 464 
Q 2878 531 3122 666 
L 3122 134 
Q 2881 22 2623 -34 
Q 2366 -91 2075 -91 
Q 1284 -91 818 406 
Q 353 903 353 1747 
Q 353 2603 823 3093 
Q 1294 3584 2113 3584 
Q 2378 3584 2631 3529 
Q 2884 3475 3122 3366 
z
" transform="scale(0.015625)"/>
       <path id="DejaVuSans-6c" d="M 603 4863 
L 1178 4863 
L 1178 0 
L 603 0 
L 603 4863 
z
" transform="scale(0.015625)"/>
       <path id="DejaVuSans-65" d="M 3597 1894 
L 3597 1613 
L 953 1613 
Q 991 1019 1311 708 
Q 1631 397 2203 397 
Q 2534 397 2845 478 
Q 3156 559 3463 722 
L 3463 178 
Q 3153 47 2828 -22 
Q 2503 -91 2169 -91 
Q 1331 -91 842 396 
Q 353 884 353 1716 
Q 353 2575 817 3079 
Q 1281 3584 2069 3584 
Q 2775 3584 3186 3129 
Q 3597 2675 3597 1894 
z
M 3022 2063 
Q 3016 2534 2758 2815 
Q 2500 3097 2075 3097 
Q 1594 3097 1305 2825 
Q 1016 2553 972 2059 
L 3022 2063 
z
" transform="scale(0.015625)"/>
       <path id="DejaVuSans-73" d="M 2834 3397 
L 2834 2853 
Q 2591 2978 2328 3040 
Q 2066 3103 1784 3103 
Q 1356 3103 1142 2972 
Q 928 2841 928 2578 
Q 928 2378 1081 2264 
Q 1234 2150 1697 2047 
L 1894 2003 
Q 2506 1872 2764 1633 
Q 3022 1394 3022 966 
Q 3022 478 2636 193 
Q 2250 -91 1575 -91 
Q 1294 -91 989 -36 
Q 684 19 347 128 
L 347 722 
Q 666 556 975 473 
Q 1284 391 1588 391 
Q 1994 391 2212 530 
Q 2431 669 2431 922 
Q 2431 1156 2273 1281 
Q 2116 1406 1581 1522 
L 1381 1569 
Q 847 1681 609 1914 
Q 372 2147 372 2553 
Q 372 3047 722 3315 
Q 1072 3584 1716 3584 
Q 2034 3584 2315 3537 
Q 2597 3491 2834 3397 
z
" transform="scale(0.015625)"/>
       <path id="DejaVuSans-79" d="M 2059 -325 
Q 1816 -950 1584 -1140 
Q 1353 -1331 966 -1331 
L 506 -1331 
L 506 -850 
L 844 -850 
Q 1081 -850 1212 -737 
Q 1344 -625 1503 -206 
L 1606 56 
L 191 3500 
L 800 3500 
L 1894 763 
L 2988 3500 
L 3597 3500 
L 2059 -325 
z
" transform="scale(0.015625)"/>
      </defs>
      <use xlink:href="#DejaVuSans-41"/>
      <use xlink:href="#DejaVuSans-6d" x="68.408203"/>
      <use xlink:href="#DejaVuSans-6f" x="165.820312"/>
      <use xlink:href="#DejaVuSans-75" x="227.001953"/>
      <use xlink:href="#DejaVuSans-6e" x="290.380859"/>
      <use xlink:href="#DejaVuSans-74" x="353.759766"/>
      <use xlink:href="#DejaVuSans-20" x="392.96875"/>
      <use xlink:href="#DejaVuSans-6f" x="424.755859"/>
      <use xlink:href="#DejaVuSans-66" x="485.9375"/>
      <use xlink:href="#DejaVuSans-20" x="521.142578"/>
      <use xlink:href="#DejaVuSans-70" x="552.929688"/>
      <use xlink:href="#DejaVuSans-61" x="616.40625"/>
      <use xlink:href="#DejaVuSans-72" x="677.685547"/>
      <use xlink:href="#DejaVuSans-74" x="718.798828"/>
      <use xlink:href="#DejaVuSans-69" x="758.007812"/>
      <use xlink:href="#DejaVuSans-63" x="785.791016"/>
      <use xlink:href="#DejaVuSans-6c" x="840.771484"/>
      <use xlink:href="#DejaVuSans-65" x="868.554688"/>
      <use xlink:href="#DejaVuSans-73" x="930.078125"/>
      <use xlink:href="#DejaVuSans-20" x="982.177734"/>
      <use xlink:href="#DejaVuSans-69" x="1013.964844"/>
      <use xlink:href="#DejaVuSans-6e" x="1041.748047"/>
      <use xlink:href="#DejaVuSans-20" x="1105.126953"/>
      <use xlink:href="#DejaVuSans-73" x="1136.914062"/>
      <use xlink:href="#DejaVuSans-79" x="1189.013672"/>
      <use xlink:href="#DejaVuSans-73" x="1248.193359"/>
      <use xlink:href="#DejaVuSans-74" x="1300.292969"/>
      <use xlink:href="#DejaVuSans-65" x="1339.501953"/>
      <use xlink:href="#DejaVuSans-6d" x="1401.025391"/>
     </g>
    </g>
   </g>
   <g id="matplotlib.axis_2">
    <g id="ytick_1">
     <g id="line2d_19">
      <path d="M 172.8 608.895938 
L 1244.16 608.895938 
" clip-path="url(#p359ce67615)" style="fill: none; stroke: #b0b0b0; stroke-width: 0.8; stroke-linecap: square"/>
     </g>
     <g id="line2d_20">
      <defs>
       <path id="mf67b901372" d="M 0 0 
L -3.5 0 
" style="stroke: #000000; stroke-width: 0.8"/>
      </defs>
      <g>
       <use xlink:href="#mf67b901372" x="172.8" y="608.895938" style="stroke: #000000; stroke-width: 0.8"/>
      </g>
     </g>
     <g id="text_11">
      <!-- 0 -->
      <g transform="translate(153.075 616.494375)scale(0.2 -0.2)">
       <use xlink:href="#DejaVuSans-30"/>
      </g>
     </g>
    </g>
    <g id="ytick_2">
     <g id="line2d_21">
      <path d="M 172.8 544.081605 
L 1244.16 544.081605 
" clip-path="url(#p359ce67615)" style="fill: none; stroke: #b0b0b0; stroke-width: 0.8; stroke-linecap: square"/>
     </g>
     <g id="line2d_22">
      <g>
       <use xlink:href="#mf67b901372" x="172.8" y="544.081605" style="stroke: #000000; stroke-width: 0.8"/>
      </g>
     </g>
     <g id="text_12">
      <!-- 1000 -->
      <g transform="translate(114.9 551.680042)scale(0.2 -0.2)">
       <use xlink:href="#DejaVuSans-31"/>
       <use xlink:href="#DejaVuSans-30" x="63.623047"/>
       <use xlink:href="#DejaVuSans-30" x="127.246094"/>
       <use xlink:href="#DejaVuSans-30" x="190.869141"/>
      </g>
     </g>
    </g>
    <g id="ytick_3">
     <g id="line2d_23">
      <path d="M 172.8 479.267271 
L 1244.16 479.267271 
" clip-path="url(#p359ce67615)" style="fill: none; stroke: #b0b0b0; stroke-width: 0.8; stroke-linecap: square"/>
     </g>
     <g id="line2d_24">
      <g>
       <use xlink:href="#mf67b901372" x="172.8" y="479.267271" style="stroke: #000000; stroke-width: 0.8"/>
      </g>
     </g>
     <g id="text_13">
      <!-- 2000 -->
      <g transform="translate(114.9 486.865709)scale(0.2 -0.2)">
       <use xlink:href="#DejaVuSans-32"/>
       <use xlink:href="#DejaVuSans-30" x="63.623047"/>
       <use xlink:href="#DejaVuSans-30" x="127.246094"/>
       <use xlink:href="#DejaVuSans-30" x="190.869141"/>
      </g>
     </g>
    </g>
    <g id="ytick_4">
     <g id="line2d_25">
      <path d="M 172.8 414.452938 
L 1244.16 414.452938 
" clip-path="url(#p359ce67615)" style="fill: none; stroke: #b0b0b0; stroke-width: 0.8; stroke-linecap: square"/>
     </g>
     <g id="line2d_26">
      <g>
       <use xlink:href="#mf67b901372" x="172.8" y="414.452938" style="stroke: #000000; stroke-width: 0.8"/>
      </g>
     </g>
     <g id="text_14">
      <!-- 3000 -->
      <g transform="translate(114.9 422.051376)scale(0.2 -0.2)">
       <defs>
        <path id="DejaVuSans-33" d="M 2597 2516 
Q 3050 2419 3304 2112 
Q 3559 1806 3559 1356 
Q 3559 666 3084 287 
Q 2609 -91 1734 -91 
Q 1441 -91 1130 -33 
Q 819 25 488 141 
L 488 750 
Q 750 597 1062 519 
Q 1375 441 1716 441 
Q 2309 441 2620 675 
Q 2931 909 2931 1356 
Q 2931 1769 2642 2001 
Q 2353 2234 1838 2234 
L 1294 2234 
L 1294 2753 
L 1863 2753 
Q 2328 2753 2575 2939 
Q 2822 3125 2822 3475 
Q 2822 3834 2567 4026 
Q 2313 4219 1838 4219 
Q 1578 4219 1281 4162 
Q 984 4106 628 3988 
L 628 4550 
Q 988 4650 1302 4700 
Q 1616 4750 1894 4750 
Q 2613 4750 3031 4423 
Q 3450 4097 3450 3541 
Q 3450 3153 3228 2886 
Q 3006 2619 2597 2516 
z
" transform="scale(0.015625)"/>
       </defs>
       <use xlink:href="#DejaVuSans-33"/>
       <use xlink:href="#DejaVuSans-30" x="63.623047"/>
       <use xlink:href="#DejaVuSans-30" x="127.246094"/>
       <use xlink:href="#DejaVuSans-30" x="190.869141"/>
      </g>
     </g>
    </g>
    <g id="ytick_5">
     <g id="line2d_27">
      <path d="M 172.8 349.638605 
L 1244.16 349.638605 
" clip-path="url(#p359ce67615)" style="fill: none; stroke: #b0b0b0; stroke-width: 0.8; stroke-linecap: square"/>
     </g>
     <g id="line2d_28">
      <g>
       <use xlink:href="#mf67b901372" x="172.8" y="349.638605" style="stroke: #000000; stroke-width: 0.8"/>
      </g>
     </g>
     <g id="text_15">
      <!-- 4000 -->
      <g transform="translate(114.9 357.237043)scale(0.2 -0.2)">
       <use xlink:href="#DejaVuSans-34"/>
       <use xlink:href="#DejaVuSans-30" x="63.623047"/>
       <use xlink:href="#DejaVuSans-30" x="127.246094"/>
       <use xlink:href="#DejaVuSans-30" x="190.869141"/>
      </g>
     </g>
    </g>
    <g id="ytick_6">
     <g id="line2d_29">
      <path d="M 172.8 284.824272 
L 1244.16 284.824272 
" clip-path="url(#p359ce67615)" style="fill: none; stroke: #b0b0b0; stroke-width: 0.8; stroke-linecap: square"/>
     </g>
     <g id="line2d_30">
      <g>
       <use xlink:href="#mf67b901372" x="172.8" y="284.824272" style="stroke: #000000; stroke-width: 0.8"/>
      </g>
     </g>
     <g id="text_16">
      <!-- 5000 -->
      <g transform="translate(114.9 292.42271)scale(0.2 -0.2)">
       <defs>
        <path id="DejaVuSans-35" d="M 691 4666 
L 3169 4666 
L 3169 4134 
L 1269 4134 
L 1269 2991 
Q 1406 3038 1543 3061 
Q 1681 3084 1819 3084 
Q 2600 3084 3056 2656 
Q 3513 2228 3513 1497 
Q 3513 744 3044 326 
Q 2575 -91 1722 -91 
Q 1428 -91 1123 -41 
Q 819 9 494 109 
L 494 744 
Q 775 591 1075 516 
Q 1375 441 1709 441 
Q 2250 441 2565 725 
Q 2881 1009 2881 1497 
Q 2881 1984 2565 2268 
Q 2250 2553 1709 2553 
Q 1456 2553 1204 2497 
Q 953 2441 691 2322 
L 691 4666 
z
" transform="scale(0.015625)"/>
       </defs>
       <use xlink:href="#DejaVuSans-35"/>
       <use xlink:href="#DejaVuSans-30" x="63.623047"/>
       <use xlink:href="#DejaVuSans-30" x="127.246094"/>
       <use xlink:href="#DejaVuSans-30" x="190.869141"/>
      </g>
     </g>
    </g>
    <g id="ytick_7">
     <g id="line2d_31">
      <path d="M 172.8 220.009939 
L 1244.16 220.009939 
" clip-path="url(#p359ce67615)" style="fill: none; stroke: #b0b0b0; stroke-width: 0.8; stroke-linecap: square"/>
     </g>
     <g id="line2d_32">
      <g>
       <use xlink:href="#mf67b901372" x="172.8" y="220.009939" style="stroke: #000000; stroke-width: 0.8"/>
      </g>
     </g>
     <g id="text_17">
      <!-- 6000 -->
      <g transform="translate(114.9 227.608376)scale(0.2 -0.2)">
       <use xlink:href="#DejaVuSans-36"/>
       <use xlink:href="#DejaVuSans-30" x="63.623047"/>
       <use xlink:href="#DejaVuSans-30" x="127.246094"/>
       <use xlink:href="#DejaVuSans-30" x="190.869141"/>
      </g>
     </g>
    </g>
    <g id="ytick_8">
     <g id="line2d_33">
      <path d="M 172.8 155.195606 
L 1244.16 155.195606 
" clip-path="url(#p359ce67615)" style="fill: none; stroke: #b0b0b0; stroke-width: 0.8; stroke-linecap: square"/>
     </g>
     <g id="line2d_34">
      <g>
       <use xlink:href="#mf67b901372" x="172.8" y="155.195606" style="stroke: #000000; stroke-width: 0.8"/>
      </g>
     </g>
     <g id="text_18">
      <!-- 7000 -->
      <g transform="translate(114.9 162.794043)scale(0.2 -0.2)">
       <defs>
        <path id="DejaVuSans-37" d="M 525 4666 
L 3525 4666 
L 3525 4397 
L 1831 0 
L 1172 0 
L 2766 4134 
L 525 4134 
L 525 4666 
z
" transform="scale(0.015625)"/>
       </defs>
       <use xlink:href="#DejaVuSans-37"/>
       <use xlink:href="#DejaVuSans-30" x="63.623047"/>
       <use xlink:href="#DejaVuSans-30" x="127.246094"/>
       <use xlink:href="#DejaVuSans-30" x="190.869141"/>
      </g>
     </g>
    </g>
    <g id="ytick_9">
     <g id="line2d_35">
      <path d="M 172.8 90.381273 
L 1244.16 90.381273 
" clip-path="url(#p359ce67615)" style="fill: none; stroke: #b0b0b0; stroke-width: 0.8; stroke-linecap: square"/>
     </g>
     <g id="line2d_36">
      <g>
       <use xlink:href="#mf67b901372" x="172.8" y="90.381273" style="stroke: #000000; stroke-width: 0.8"/>
      </g>
     </g>
     <g id="text_19">
      <!-- 8000 -->
      <g transform="translate(114.9 97.97971)scale(0.2 -0.2)">
       <use xlink:href="#DejaVuSans-38"/>
       <use xlink:href="#DejaVuSans-30" x="63.623047"/>
       <use xlink:href="#DejaVuSans-30" x="127.246094"/>
       <use xlink:href="#DejaVuSans-30" x="190.869141"/>
      </g>
     </g>
    </g>
    <g id="text_20">
     <!-- Time to run 1, 000 iterations -->
     <g transform="translate(106.740625 495.594025)rotate(-90)scale(0.2 -0.2)">
      <defs>
       <path id="DejaVuSans-54" d="M -19 4666 
L 3928 4666 
L 3928 4134 
L 2272 4134 
L 2272 0 
L 1638 0 
L 1638 4134 
L -19 4134 
L -19 4666 
z
" transform="scale(0.015625)"/>
       <path id="DejaVuSans-2c" d="M 750 794 
L 1409 794 
L 1409 256 
L 897 -744 
L 494 -744 
L 750 256 
L 750 794 
z
" transform="scale(0.015625)"/>
      </defs>
      <use xlink:href="#DejaVuSans-54"/>
      <use xlink:href="#DejaVuSans-69" x="57.958984"/>
      <use xlink:href="#DejaVuSans-6d" x="85.742188"/>
      <use xlink:href="#DejaVuSans-65" x="183.154297"/>
      <use xlink:href="#DejaVuSans-20" x="244.677734"/>
      <use xlink:href="#DejaVuSans-74" x="276.464844"/>
      <use xlink:href="#DejaVuSans-6f" x="315.673828"/>
      <use xlink:href="#DejaVuSans-20" x="376.855469"/>
      <use xlink:href="#DejaVuSans-72" x="408.642578"/>
      <use xlink:href="#DejaVuSans-75" x="449.755859"/>
      <use xlink:href="#DejaVuSans-6e" x="513.134766"/>
      <use xlink:href="#DejaVuSans-20" x="576.513672"/>
      <use xlink:href="#DejaVuSans-31" x="608.300781"/>
      <use xlink:href="#DejaVuSans-2c" x="671.923828"/>
      <use xlink:href="#DejaVuSans-20" x="703.710938"/>
      <use xlink:href="#DejaVuSans-30" x="735.498047"/>
      <use xlink:href="#DejaVuSans-30" x="799.121094"/>
      <use xlink:href="#DejaVuSans-30" x="862.744141"/>
      <use xlink:href="#DejaVuSans-20" x="926.367188"/>
      <use xlink:href="#DejaVuSans-69" x="958.154297"/>
      <use xlink:href="#DejaVuSans-74" x="985.9375"/>
      <use xlink:href="#DejaVuSans-65" x="1025.146484"/>
      <use xlink:href="#DejaVuSans-72" x="1086.669922"/>
      <use xlink:href="#DejaVuSans-61" x="1127.783203"/>
      <use xlink:href="#DejaVuSans-74" x="1189.0625"/>
      <use xlink:href="#DejaVuSans-69" x="1228.271484"/>
      <use xlink:href="#DejaVuSans-6f" x="1256.054688"/>
      <use xlink:href="#DejaVuSans-6e" x="1317.236328"/>
      <use xlink:href="#DejaVuSans-73" x="1380.615234"/>
     </g>
    </g>
   </g>
   <g id="line2d_37">
    <path d="M 221.498182 565.211077 
L 227.662509 559.442601 
L 233.826835 552.377839 
L 239.991162 546.285292 
L 246.155489 540.840888 
L 252.319816 534.489083 
L 258.484143 526.06322 
L 264.64847 518.350314 
L 270.812796 505.063376 
L 276.977123 493.331982 
L 283.14145 488.794978 
L 289.305777 476.285812 
L 295.470104 461.184072 
L 301.63443 462.869245 
L 307.798757 455.026711 
L 313.963084 443.878646 
L 320.127411 433.313909 
L 326.291738 437.591655 
L 332.456064 416.462183 
L 338.620391 422.878802 
L 344.784718 414.647381 
L 350.949045 398.443798 
L 357.113372 403.045616 
L 363.277699 382.045772 
L 369.442025 390.925335 
L 375.606352 382.110586 
L 381.770679 372.45325 
L 387.935006 367.397732 
L 394.099333 359.036683 
L 400.263659 355.277452 
L 406.427986 349.120091 
L 412.592313 343.740501 
L 418.75664 339.203498 
L 424.920967 330.583191 
L 431.085293 293.444578 
L 437.24962 284.824272 
L 443.413947 311.981478 
L 449.578274 304.203758 
L 455.742601 295.907523 
L 461.906928 281.194669 
L 468.071254 284.824272 
L 474.235581 276.398409 
L 480.399908 267.583659 
L 486.564235 265.704044 
L 492.728562 254.296721 
L 498.892888 264.6022 
L 505.057215 254.750421 
L 511.221542 238.028324 
L 517.385869 242.370884 
L 523.550196 251.444891 
L 529.714522 230.898747 
L 535.878849 231.676519 
L 542.043176 223.185841 
L 548.207503 228.176545 
L 554.37183 222.991398 
L 560.536157 214.435906 
L 566.700483 172.112147 
L 572.86481 201.343411 
L 579.029137 202.056369 
L 585.193464 190.195346 
L 591.357791 193.436062 
L 597.522117 195.250864 
L 603.686444 187.991658 
L 609.850771 180.149124 
L 616.015098 179.889867 
L 622.179425 148.97343 
L 628.343751 142.362368 
L 634.508078 138.019808 
L 640.672405 166.019599 
L 646.836732 177.10285 
L 653.001059 173.343619 
L 659.165386 146.251228 
L 665.329712 149.556759 
L 671.494039 156.556707 
L 677.658366 154.612277 
L 683.822693 169.908459 
L 689.98702 164.075169 
L 696.151346 164.399241 
L 702.315673 166.214042 
L 708.48 145.797528 
L 714.644327 143.59384 
L 720.808654 140.936453 
L 726.97298 140.936453 
L 733.137307 132.769847 
L 739.301634 125.316198 
L 745.465961 129.010615 
L 751.630288 119.418094 
L 757.794614 122.982882 
L 763.958941 122.918068 
L 770.123268 121.945853 
L 776.287595 110.797788 
L 782.451922 121.232895 
L 788.616249 124.797684 
L 794.780575 122.140296 
L 800.944902 119.288465 
L 807.109229 124.343983 
L 813.273556 121.038452 
L 819.437883 119.223651 
L 825.602209 125.056941 
L 831.766536 118.31625 
L 837.930863 110.797788 
L 844.09519 118.31625 
L 850.259517 131.149488 
L 856.423843 122.334739 
L 862.58817 118.445879 
L 868.752497 124.019912 
L 874.916824 117.279221 
L 881.081151 109.695944 
L 887.245478 151.630818 
L 893.409804 119.094022 
L 899.574131 116.890335 
L 905.738458 116.501449 
L 911.902785 115.723677 
L 918.067112 114.103319 
L 924.231438 121.492153 
L 930.395765 114.232947 
L 936.560092 124.084726 
L 942.724419 122.010667 
L 948.888746 124.797684 
L 955.053072 119.871794 
L 961.217399 120.390309 
L 967.381726 125.121755 
L 973.546053 130.371716 
L 979.71038 120.131052 
L 985.874707 123.24214 
L 992.039033 129.658759 
L 998.20336 131.668003 
L 1004.367687 133.41799 
L 1010.532014 129.269873 
L 1016.696341 131.92726 
L 1022.860667 122.853254 
L 1029.024994 123.825469 
L 1035.189321 131.732817 
L 1041.353648 130.112459 
L 1047.517975 133.029104 
L 1053.682301 129.918016 
L 1059.846628 112.807032 
L 1066.010955 128.297658 
L 1072.175282 125.769899 
L 1078.339609 130.306902 
L 1084.503936 123.047697 
L 1090.668262 119.677351 
L 1096.832589 108.1404 
L 1102.996916 131.992075 
L 1109.161243 140.936453 
L 1115.32557 127.779143 
L 1121.489896 155.908564 
L 1127.654223 142.68644 
L 1133.81855 134.714277 
L 1139.982877 138.667951 
L 1146.147204 139.510537 
L 1152.31153 125.056941 
L 1158.475857 148.584544 
L 1164.640184 183.195398 
L 1170.804511 158.047436 
L 1176.968838 151.760446 
L 1183.133165 161.352967 
L 1189.297491 155.908564 
L 1195.461818 160.64001 
L 1195.461818 160.64001 
" clip-path="url(#p359ce67615)" style="fill: none; stroke: #1f77b4; stroke-width: 1.5; stroke-linecap: square"/>
   </g>
   <g id="line2d_38">
    <path d="M 221.498182 596.5164 
L 227.662509 595.608999 
L 233.826835 592.497911 
L 239.991162 594.442341 
L 246.155489 589.322009 
L 252.319816 591.13681 
L 258.484143 590.164595 
L 270.812796 587.053507 
L 276.977123 584.785006 
L 283.14145 583.035019 
L 289.305777 582.516504 
L 295.470104 581.803546 
L 301.63443 579.923931 
L 307.798757 578.757273 
L 313.963084 577.266543 
L 320.127411 574.67397 
L 326.291738 575.257299 
L 332.456064 572.988797 
L 338.620391 571.757325 
L 344.784718 571.627696 
L 350.949045 567.025878 
L 357.113372 568.905494 
L 363.277699 567.933279 
L 369.442025 562.553689 
L 375.606352 564.692562 
L 381.770679 563.785162 
L 387.935006 562.035175 
L 394.099333 561.127774 
L 400.263659 555.812999 
L 406.427986 557.562986 
L 412.592313 555.359298 
L 418.75664 555.294484 
L 424.920967 550.433409 
L 431.085293 548.488979 
L 437.24962 551.729696 
L 443.413947 551.664881 
L 449.578274 545.313077 
L 455.742601 548.813051 
L 461.906928 547.322321 
L 468.071254 543.239018 
L 474.235581 545.896406 
L 480.399908 537.535357 
L 486.564235 539.414973 
L 492.728562 539.609416 
L 498.892888 542.720504 
L 505.057215 540.776074 
L 511.221542 538.442758 
L 517.385869 537.600171 
L 523.550196 531.44281 
L 529.714522 536.174256 
L 535.878849 535.78537 
L 542.043176 526.06322 
L 548.207503 520.359559 
L 554.37183 531.377995 
L 560.536157 530.794666 
L 566.700483 529.303937 
L 572.86481 522.757689 
L 579.029137 526.128034 
L 585.193464 523.081761 
L 591.357791 526.581735 
L 597.522117 524.57249 
L 603.686444 527.165064 
L 609.850771 521.785474 
L 616.015098 525.544705 
L 622.179425 526.257663 
L 634.508078 524.442862 
L 640.672405 522.498432 
L 646.836732 523.211389 
L 653.001059 521.785474 
L 659.165386 523.66509 
L 665.329712 521.137331 
L 671.494039 520.035487 
L 677.658366 519.841044 
L 683.822693 520.359559 
L 689.98702 518.998458 
L 696.151346 519.128086 
L 702.315673 517.442914 
L 708.48 517.702171 
L 714.644327 518.7392 
L 720.808654 519.516972 
L 726.97298 514.39664 
L 733.137307 513.878125 
L 739.301634 516.081813 
L 745.465961 516.535513 
L 751.630288 515.88737 
L 757.794614 514.979969 
L 763.958941 512.387396 
L 770.123268 512.646653 
L 776.287595 514.202197 
L 782.451922 510.767037 
L 788.616249 511.479995 
L 794.780575 510.50778 
L 800.944902 507.396692 
L 807.109229 506.035591 
L 813.273556 509.211493 
L 819.437883 509.665194 
L 825.602209 510.831852 
L 831.766536 512.128138 
L 837.930863 511.674438 
L 844.09519 506.61892 
L 850.259517 510.183708 
L 856.423843 508.628164 
L 862.58817 514.720712 
L 868.752497 508.174464 
L 874.916824 509.081865 
L 881.081151 509.600379 
L 887.245478 510.313337 
L 893.409804 509.859637 
L 899.574131 507.915207 
L 905.738458 507.267063 
L 911.902785 509.405936 
L 918.067112 515.044783 
L 924.231438 509.276308 
L 930.395765 506.359663 
L 936.560092 506.359663 
L 942.724419 507.202249 
L 948.888746 506.035591 
L 955.053072 507.396692 
L 961.217399 511.609624 
L 967.381726 505.776334 
L 973.546053 506.878177 
L 979.71038 579.340602 
L 985.874707 508.174464 
L 992.039033 507.526321 
L 998.20336 577.5258 
L 1004.367687 571.757325 
L 1010.532014 507.267063 
L 1016.696341 576.488771 
L 1022.860667 557.303728 
L 1029.024994 504.933747 
L 1035.189321 578.303572 
L 1041.353648 576.942471 
L 1047.517975 577.007286 
L 1053.682301 575.970256 
L 1059.846628 582.840576 
L 1066.010955 559.377787 
L 1072.175282 560.609259 
L 1078.339609 572.146211 
L 1084.503936 570.720295 
L 1090.668262 571.303624 
L 1096.832589 558.535201 
L 1102.996916 571.69251 
L 1109.161243 556.13707 
L 1115.32557 572.081396 
L 1121.489896 573.312869 
L 1127.654223 565.470334 
L 1133.81855 573.248054 
L 1139.982877 578.368387 
L 1146.147204 573.377683 
L 1152.31153 563.266647 
L 1158.475857 571.886953 
L 1164.640184 572.72954 
L 1170.804511 578.886901 
L 1176.968838 570.136966 
L 1183.133165 571.23881 
L 1189.297491 569.683266 
L 1195.461818 568.646237 
L 1195.461818 568.646237 
" clip-path="url(#p359ce67615)" style="fill: none; stroke: #ff7f0e; stroke-width: 1.5; stroke-linecap: square"/>
   </g>
   <g id="patch_3">
    <path d="M 172.8 620.9352 
L 172.8 83.7216 
" style="fill: none; stroke: #000000; stroke-width: 0.8; stroke-linejoin: miter; stroke-linecap: square"/>
   </g>
   <g id="patch_4">
    <path d="M 1244.16 620.9352 
L 1244.16 83.7216 
" style="fill: none; stroke: #000000; stroke-width: 0.8; stroke-linejoin: miter; stroke-linecap: square"/>
   </g>
   <g id="patch_5">
    <path d="M 172.8 620.9352 
L 1244.16 620.9352 
" style="fill: none; stroke: #000000; stroke-width: 0.8; stroke-linejoin: miter; stroke-linecap: square"/>
   </g>
   <g id="patch_6">
    <path d="M 172.8 83.7216 
L 1244.16 83.7216 
" style="fill: none; stroke: #000000; stroke-width: 0.8; stroke-linejoin: miter; stroke-linecap: square"/>
   </g>
   <g id="text_21">
    <!-- Comparison of GPU energy calculation efficacy -->
    <g transform="translate(426.883125 77.7216)scale(0.24 -0.24)">
     <defs>
      <path id="DejaVuSans-43" d="M 4122 4306 
L 4122 3641 
Q 3803 3938 3442 4084 
Q 3081 4231 2675 4231 
Q 1875 4231 1450 3742 
Q 1025 3253 1025 2328 
Q 1025 1406 1450 917 
Q 1875 428 2675 428 
Q 3081 428 3442 575 
Q 3803 722 4122 1019 
L 4122 359 
Q 3791 134 3420 21 
Q 3050 -91 2638 -91 
Q 1578 -91 968 557 
Q 359 1206 359 2328 
Q 359 3453 968 4101 
Q 1578 4750 2638 4750 
Q 3056 4750 3426 4639 
Q 3797 4528 4122 4306 
z
" transform="scale(0.015625)"/>
      <path id="DejaVuSans-47" d="M 3809 666 
L 3809 1919 
L 2778 1919 
L 2778 2438 
L 4434 2438 
L 4434 434 
Q 4069 175 3628 42 
Q 3188 -91 2688 -91 
Q 1594 -91 976 548 
Q 359 1188 359 2328 
Q 359 3472 976 4111 
Q 1594 4750 2688 4750 
Q 3144 4750 3555 4637 
Q 3966 4525 4313 4306 
L 4313 3634 
Q 3963 3931 3569 4081 
Q 3175 4231 2741 4231 
Q 1884 4231 1454 3753 
Q 1025 3275 1025 2328 
Q 1025 1384 1454 906 
Q 1884 428 2741 428 
Q 3075 428 3337 486 
Q 3600 544 3809 666 
z
" transform="scale(0.015625)"/>
      <path id="DejaVuSans-50" d="M 1259 4147 
L 1259 2394 
L 2053 2394 
Q 2494 2394 2734 2622 
Q 2975 2850 2975 3272 
Q 2975 3691 2734 3919 
Q 2494 4147 2053 4147 
L 1259 4147 
z
M 628 4666 
L 2053 4666 
Q 2838 4666 3239 4311 
Q 3641 3956 3641 3272 
Q 3641 2581 3239 2228 
Q 2838 1875 2053 1875 
L 1259 1875 
L 1259 0 
L 628 0 
L 628 4666 
z
" transform="scale(0.015625)"/>
      <path id="DejaVuSans-55" d="M 556 4666 
L 1191 4666 
L 1191 1831 
Q 1191 1081 1462 751 
Q 1734 422 2344 422 
Q 2950 422 3222 751 
Q 3494 1081 3494 1831 
L 3494 4666 
L 4128 4666 
L 4128 1753 
Q 4128 841 3676 375 
Q 3225 -91 2344 -91 
Q 1459 -91 1007 375 
Q 556 841 556 1753 
L 556 4666 
z
" transform="scale(0.015625)"/>
      <path id="DejaVuSans-67" d="M 2906 1791 
Q 2906 2416 2648 2759 
Q 2391 3103 1925 3103 
Q 1463 3103 1205 2759 
Q 947 2416 947 1791 
Q 947 1169 1205 825 
Q 1463 481 1925 481 
Q 2391 481 2648 825 
Q 2906 1169 2906 1791 
z
M 3481 434 
Q 3481 -459 3084 -895 
Q 2688 -1331 1869 -1331 
Q 1566 -1331 1297 -1286 
Q 1028 -1241 775 -1147 
L 775 -588 
Q 1028 -725 1275 -790 
Q 1522 -856 1778 -856 
Q 2344 -856 2625 -561 
Q 2906 -266 2906 331 
L 2906 616 
Q 2728 306 2450 153 
Q 2172 0 1784 0 
Q 1141 0 747 490 
Q 353 981 353 1791 
Q 353 2603 747 3093 
Q 1141 3584 1784 3584 
Q 2172 3584 2450 3431 
Q 2728 3278 2906 2969 
L 2906 3500 
L 3481 3500 
L 3481 434 
z
" transform="scale(0.015625)"/>
     </defs>
     <use xlink:href="#DejaVuSans-43"/>
     <use xlink:href="#DejaVuSans-6f" x="69.824219"/>
     <use xlink:href="#DejaVuSans-6d" x="131.005859"/>
     <use xlink:href="#DejaVuSans-70" x="228.417969"/>
     <use xlink:href="#DejaVuSans-61" x="291.894531"/>
     <use xlink:href="#DejaVuSans-72" x="353.173828"/>
     <use xlink:href="#DejaVuSans-69" x="394.287109"/>
     <use xlink:href="#DejaVuSans-73" x="422.070312"/>
     <use xlink:href="#DejaVuSans-6f" x="474.169922"/>
     <use xlink:href="#DejaVuSans-6e" x="535.351562"/>
     <use xlink:href="#DejaVuSans-20" x="598.730469"/>
     <use xlink:href="#DejaVuSans-6f" x="630.517578"/>
     <use xlink:href="#DejaVuSans-66" x="691.699219"/>
     <use xlink:href="#DejaVuSans-20" x="726.904297"/>
     <use xlink:href="#DejaVuSans-47" x="758.691406"/>
     <use xlink:href="#DejaVuSans-50" x="836.181641"/>
     <use xlink:href="#DejaVuSans-55" x="896.484375"/>
     <use xlink:href="#DejaVuSans-20" x="969.677734"/>
     <use xlink:href="#DejaVuSans-65" x="1001.464844"/>
     <use xlink:href="#DejaVuSans-6e" x="1062.988281"/>
     <use xlink:href="#DejaVuSans-65" x="1126.367188"/>
     <use xlink:href="#DejaVuSans-72" x="1187.890625"/>
     <use xlink:href="#DejaVuSans-67" x="1227.253906"/>
     <use xlink:href="#DejaVuSans-79" x="1290.730469"/>
     <use xlink:href="#DejaVuSans-20" x="1349.910156"/>
     <use xlink:href="#DejaVuSans-63" x="1381.697266"/>
     <use xlink:href="#DejaVuSans-61" x="1436.677734"/>
     <use xlink:href="#DejaVuSans-6c" x="1497.957031"/>
     <use xlink:href="#DejaVuSans-63" x="1525.740234"/>
     <use xlink:href="#DejaVuSans-75" x="1580.720703"/>
     <use xlink:href="#DejaVuSans-6c" x="1644.099609"/>
     <use xlink:href="#DejaVuSans-61" x="1671.882812"/>
     <use xlink:href="#DejaVuSans-74" x="1733.162109"/>
     <use xlink:href="#DejaVuSans-69" x="1772.371094"/>
     <use xlink:href="#DejaVuSans-6f" x="1800.154297"/>
     <use xlink:href="#DejaVuSans-6e" x="1861.335938"/>
     <use xlink:href="#DejaVuSans-20" x="1924.714844"/>
     <use xlink:href="#DejaVuSans-65" x="1956.501953"/>
     <use xlink:href="#DejaVuSans-66" x="2018.025391"/>
     <use xlink:href="#DejaVuSans-66" x="2053.230469"/>
     <use xlink:href="#DejaVuSans-69" x="2088.435547"/>
     <use xlink:href="#DejaVuSans-63" x="2116.21875"/>
     <use xlink:href="#DejaVuSans-61" x="2171.199219"/>
     <use xlink:href="#DejaVuSans-63" x="2232.478516"/>
     <use xlink:href="#DejaVuSans-79" x="2287.458984"/>
    </g>
   </g>
   <g id="legend_1">
    <g id="patch_7">
     <path d="M 186.8 158.4341 
L 407.953125 158.4341 
Q 411.953125 158.4341 411.953125 154.4341 
L 411.953125 97.7216 
Q 411.953125 93.7216 407.953125 93.7216 
L 186.8 93.7216 
Q 182.8 93.7216 182.8 97.7216 
L 182.8 154.4341 
Q 182.8 158.4341 186.8 158.4341 
z
" style="fill: #ffffff; opacity: 0.8; stroke: #cccccc; stroke-linejoin: miter"/>
    </g>
    <g id="line2d_39">
     <path d="M 190.8 109.918475 
L 210.8 109.918475 
L 230.8 109.918475 
" style="fill: none; stroke: #1f77b4; stroke-width: 1.5; stroke-linecap: square"/>
    </g>
    <g id="text_22">
     <!-- CPU calculation -->
     <g transform="translate(246.8 116.918475)scale(0.2 -0.2)">
      <use xlink:href="#DejaVuSans-43"/>
      <use xlink:href="#DejaVuSans-50" x="69.824219"/>
      <use xlink:href="#DejaVuSans-55" x="130.126953"/>
      <use xlink:href="#DejaVuSans-20" x="203.320312"/>
      <use xlink:href="#DejaVuSans-63" x="235.107422"/>
      <use xlink:href="#DejaVuSans-61" x="290.087891"/>
      <use xlink:href="#DejaVuSans-6c" x="351.367188"/>
      <use xlink:href="#DejaVuSans-63" x="379.150391"/>
      <use xlink:href="#DejaVuSans-75" x="434.130859"/>
      <use xlink:href="#DejaVuSans-6c" x="497.509766"/>
      <use xlink:href="#DejaVuSans-61" x="525.292969"/>
      <use xlink:href="#DejaVuSans-74" x="586.572266"/>
      <use xlink:href="#DejaVuSans-69" x="625.78125"/>
      <use xlink:href="#DejaVuSans-6f" x="653.564453"/>
      <use xlink:href="#DejaVuSans-6e" x="714.746094"/>
     </g>
    </g>
    <g id="line2d_40">
     <path d="M 190.8 139.274725 
L 210.8 139.274725 
L 230.8 139.274725 
" style="fill: none; stroke: #ff7f0e; stroke-width: 1.5; stroke-linecap: square"/>
    </g>
    <g id="text_23">
     <!-- GPU calculation -->
     <g transform="translate(246.8 146.274725)scale(0.2 -0.2)">
      <use xlink:href="#DejaVuSans-47"/>
      <use xlink:href="#DejaVuSans-50" x="77.490234"/>
      <use xlink:href="#DejaVuSans-55" x="137.792969"/>
      <use xlink:href="#DejaVuSans-20" x="210.986328"/>
      <use xlink:href="#DejaVuSans-63" x="242.773438"/>
      <use xlink:href="#DejaVuSans-61" x="297.753906"/>
      <use xlink:href="#DejaVuSans-6c" x="359.033203"/>
      <use xlink:href="#DejaVuSans-63" x="386.816406"/>
      <use xlink:href="#DejaVuSans-75" x="441.796875"/>
      <use xlink:href="#DejaVuSans-6c" x="505.175781"/>
      <use xlink:href="#DejaVuSans-61" x="532.958984"/>
      <use xlink:href="#DejaVuSans-74" x="594.238281"/>
      <use xlink:href="#DejaVuSans-69" x="633.447266"/>
      <use xlink:href="#DejaVuSans-6f" x="661.230469"/>
      <use xlink:href="#DejaVuSans-6e" x="722.412109"/>
     </g>
    </g>
   </g>
  </g>
 </g>
 <defs>
  <clipPath id="p359ce67615">
   <rect x="172.8" y="83.7216" width="1071.36" height="537.2136"/>
  </clipPath>
 </defs>
</svg>
